HIERARCHY
ROOT Hips
{
	OFFSET -14.64140 90.27770 -84.91600
	CHANNELS 6 Xposition Yposition Zposition Zrotation Xrotation Yrotation
	JOINT Spine
	{
		OFFSET 0.00000 13.20850 -1.60436
		CHANNELS 3 Zrotation Xrotation Yrotation
		JOINT Spine1
		{
			OFFSET 0.00000 8.61716 0.00000
			CHANNELS 3 Zrotation Xrotation Yrotation
			JOINT Spine2
			{
				OFFSET 0.00000 8.61717 0.00000
				CHANNELS 3 Zrotation Xrotation Yrotation
				JOINT Spine3
				{
					OFFSET 0.00000 8.61717 0.00000
					CHANNELS 3 Zrotation Xrotation Yrotation
					JOINT Neck
					{
						OFFSET 0.00000 11.07920 1.10792
						CHANNELS 3 Zrotation Xrotation Yrotation
						JOINT Neck1
						{
							OFFSET 0.00000 7.08032 0.00000
							CHANNELS 3 Zrotation Xrotation Yrotation
							JOINT Head
							{
								OFFSET 0.00000 7.08031 0.00000
								CHANNELS 3 Zrotation Xrotation Yrotation
								End site
								{
									OFFSET 0.00000 0.00000 0.00000
								}
							}
						}
					}
					JOINT RightShoulder
					{
						OFFSET -0.01000 7.91373 5.19711
						CHANNELS 3 Zrotation Xrotation Yrotation
						JOINT RightArm
						{
							OFFSET -18.41580 0.00000 0.00000
							CHANNELS 3 Zrotation Xrotation Yrotation
							JOINT RightForeArm
							{
								OFFSET -29.11090 0.00000 0.00000
								CHANNELS 3 Zrotation Xrotation Yrotation
								JOINT RightHand
								{
									OFFSET -24.65040 0.00000 0.00000
									CHANNELS 3 Zrotation Xrotation Yrotation
									JOINT RightHandThumb1
									{
										OFFSET -5.35114 -0.85590 3.97906
										CHANNELS 3 Zrotation Xrotation Yrotation
										JOINT RightHandThumb2
										{
											OFFSET -4.52789 0.00000 0.00000
											CHANNELS 3 Zrotation Xrotation Yrotation
											JOINT RightHandThumb3
											{
												OFFSET -2.46976 0.00000 0.00000
												CHANNELS 3 Zrotation Xrotation Yrotation
												End site
												{
													OFFSET 0.00000 0.00000 0.00000
												}
											}
										}
									}
									JOINT RightHandIndex1
									{
										OFFSET -14.26970 0.00000 2.88139
										CHANNELS 3 Zrotation Xrotation Yrotation
										JOINT RightHandIndex2
										{
											OFFSET -5.48836 0.00000 0.00000
											CHANNELS 3 Zrotation Xrotation Yrotation
											JOINT RightHandIndex3
											{
												OFFSET -3.01859 0.00000 0.00000
												CHANNELS 3 Zrotation Xrotation Yrotation
												End site
												{
													OFFSET 0.00000 0.00000 0.00000
												}
											}
										}
									}
									JOINT RightHandMiddle1
									{
										OFFSET -14.26970 0.00000 -0.09147
										CHANNELS 3 Zrotation Xrotation Yrotation
										JOINT RightHandMiddle2
										{
											OFFSET -6.17441 0.00000 0.00000
											CHANNELS 3 Zrotation Xrotation Yrotation
											JOINT RightHandMiddle3
											{
												OFFSET -3.56743 0.00000 0.00000
												CHANNELS 3 Zrotation Xrotation Yrotation
												End site
												{
													OFFSET 0.00000 0.00000 0.00000
												}
											}
										}
									}
									JOINT RightHandRing1
									{
										OFFSET -12.69180 0.00000 -3.06433
										CHANNELS 3 Zrotation Xrotation Yrotation
										JOINT RightHandRing2
										{
											OFFSET -5.62556 0.00000 0.00000
											CHANNELS 3 Zrotation Xrotation Yrotation
											JOINT RightHandRing3
											{
												OFFSET -3.56744 0.00000 0.00000
												CHANNELS 3 Zrotation Xrotation Yrotation
												End site
												{
													OFFSET 0.00000 0.00000 0.00000
												}
											}
										}
									}
									JOINT RightHandPinky1
									{
										OFFSET -11.11390 0.00000 -6.03719
										CHANNELS 3 Zrotation Xrotation Yrotation
										JOINT RightHandPinky2
										{
											OFFSET -4.52789 0.00000 0.00000
											CHANNELS 3 Zrotation Xrotation Yrotation
											JOINT RightHandPinky3
											{
												OFFSET -2.46976 0.00000 0.00000
												CHANNELS 3 Zrotation Xrotation Yrotation
												End site
												{
													OFFSET 0.00000 0.00000 0.00000
												}
											}
										}
									}
								}
							}
						}
					}
					JOINT LeftShoulder
					{
						OFFSET 0.01000 7.91373 5.19711
						CHANNELS 3 Zrotation Xrotation Yrotation
						JOINT LeftArm
						{
							OFFSET 18.41580 0.00000 0.00000
							CHANNELS 3 Zrotation Xrotation Yrotation
							JOINT LeftForeArm
							{
								OFFSET 29.11090 0.00000 0.00000
								CHANNELS 3 Zrotation Xrotation Yrotation
								JOINT LeftHand
								{
									OFFSET 24.65040 0.00000 0.00000
									CHANNELS 3 Zrotation Xrotation Yrotation
									JOINT LeftHandThumb1
									{
										OFFSET 5.35114 -0.85590 3.97906
										CHANNELS 3 Zrotation Xrotation Yrotation
										JOINT LeftHandThumb2
										{
											OFFSET 4.52789 0.00000 0.00000
											CHANNELS 3 Zrotation Xrotation Yrotation
											JOINT LeftHandThumb3
											{
												OFFSET 2.46977 0.00000 0.00000
												CHANNELS 3 Zrotation Xrotation Yrotation
												End site
												{
													OFFSET 0.00000 0.00000 0.00000
												}
											}
										}
									}
									JOINT LeftHandIndex1
									{
										OFFSET 14.26970 0.00000 2.88139
										CHANNELS 3 Zrotation Xrotation Yrotation
										JOINT LeftHandIndex2
										{
											OFFSET 5.48836 0.00000 0.00000
											CHANNELS 3 Zrotation Xrotation Yrotation
											JOINT LeftHandIndex3
											{
												OFFSET 3.01859 0.00000 0.00000
												CHANNELS 3 Zrotation Xrotation Yrotation
												End site
												{
													OFFSET 0.00000 0.00000 0.00000
												}
											}
										}
									}
									JOINT LeftHandMiddle1
									{
										OFFSET 14.26970 0.00000 -0.09147
										CHANNELS 3 Zrotation Xrotation Yrotation
										JOINT LeftHandMiddle2
										{
											OFFSET 6.17440 0.00000 0.00000
											CHANNELS 3 Zrotation Xrotation Yrotation
											JOINT LeftHandMiddle3
											{
												OFFSET 3.56744 0.00000 0.00000
												CHANNELS 3 Zrotation Xrotation Yrotation
												End site
												{
													OFFSET 0.00000 0.00000 0.00000
												}
											}
										}
									}
									JOINT LeftHandRing1
									{
										OFFSET 12.69180 0.00000 -3.06433
										CHANNELS 3 Zrotation Xrotation Yrotation
										JOINT LeftHandRing2
										{
											OFFSET 5.62556 0.00000 0.00000
											CHANNELS 3 Zrotation Xrotation Yrotation
											JOINT LeftHandRing3
											{
												OFFSET 3.56744 0.00000 0.00000
												CHANNELS 3 Zrotation Xrotation Yrotation
												End site
												{
													OFFSET 0.00000 0.00000 0.00000
												}
											}
										}
									}
									JOINT LeftHandPinky1
									{
										OFFSET 11.11390 0.00000 -6.03719
										CHANNELS 3 Zrotation Xrotation Yrotation
										JOINT LeftHandPinky2
										{
											OFFSET 4.52789 0.00000 0.00000
											CHANNELS 3 Zrotation Xrotation Yrotation
											JOINT LeftHandPinky3
											{
												OFFSET 2.46976 0.00000 0.00000
												CHANNELS 3 Zrotation Xrotation Yrotation
												End site
												{
													OFFSET 0.00000 0.00000 0.00000
												}
											}
										}
									}
								}
							}
						}
					}
					JOINT pCube4
					{
						OFFSET 0.00000 10.91090 1.10792
						CHANNELS 3 Zrotation Xrotation Yrotation
						End site
						{
							OFFSET 0.00000 0.00000 0.00000
						}
					}
				}
			}
		}
	}
	JOINT RightUpLeg
	{
		OFFSET -9.98441 0.00000 0.00000
		CHANNELS 3 Zrotation Xrotation Yrotation
		JOINT RightLeg
		{
			OFFSET 0.00000 -42.11790 0.00000
			CHANNELS 3 Zrotation Xrotation Yrotation
			JOINT RightFoot
			{
				OFFSET 0.00000 -45.00020 -0.00001
				CHANNELS 3 Zrotation Xrotation Yrotation
				JOINT RightForeFoot
				{
					OFFSET 0.00000 -3.74820 0.00000
					CHANNELS 3 Zrotation Xrotation Yrotation
					JOINT RightToeBase
					{
						OFFSET 0.00000 0.06325 14.43120
						CHANNELS 3 Zrotation Xrotation Yrotation
						End site
						{
							OFFSET 0.00000 0.00000 0.00000
						}
					}
				}
			}
		}
	}
	JOINT LeftUpLeg
	{
		OFFSET 9.98441 0.00000 0.00000
		CHANNELS 3 Zrotation Xrotation Yrotation
		JOINT LeftLeg
		{
			OFFSET 0.00000 -42.11800 0.00000
			CHANNELS 3 Zrotation Xrotation Yrotation
			JOINT LeftFoot
			{
				OFFSET 0.00000 -45.00070 0.00000
				CHANNELS 3 Zrotation Xrotation Yrotation
				JOINT LeftForeFoot
				{
					OFFSET 0.00000 -3.74824 0.00000
					CHANNELS 3 Zrotation Xrotation Yrotation
					JOINT LeftToeBase
					{
						OFFSET 0.00000 0.06325 14.43110
						CHANNELS 3 Zrotation Xrotation Yrotation
						End site
						{
							OFFSET 0.00000 0.00000 0.00000
						}
					}
				}
			}
		}
	}
}
MOTION
Frames: 4
Frame Time: 0.050000
0.0008371202088396953 0.006623849233212323 -0.03353757052538469 0.018673100612735426 0.027200759717863274 -0.015660343442540824 -3.260005451844323 0.4286643388884688 -0.7351540580299153 -1.1030903477403657 3.8472718588252097 0.3778785713191073 -1.3051809796793745 -2.0632153825461317 -0.9782657539359981 -0.4081156962343597 0.5012140879601296 -0.8273124185819519 -0.5430499481053777 13.36742970372707 2.340742977298045 0.4416315680750316 0.1594327374120791 4.373986598388021 -0.09568167762248946 -14.67999466021568 0.38122712727238794 -4.921264249982954 1.8166248479987919 -15.29642916164036 73.36641287884825 19.827775886438356 -0.9834815677891845 2.774609840786454 2.4303116995219707 42.08108045250589 23.230852926072117 -0.13946801023707048 -4.19325747609491 4.512419431781666 -0.15527271287191005 -1.5990189660567098 0.017722776840919708 -0.03111308730476968 -56.25672617613579 0.0009861505178389884 -0.028651171024412416 -56.249392307219736 -38.76608368520342 0.00798361494405669 0.036845659013382714 0.04815888302350996 -0.008474975433248221 0.025530129207815715 -0.005881442036557412 -0.035112852264693475 0.039887940426163865 -36.649145380481954 -0.041102632330328744 -0.032746839871872206 -0.009991434996677822 -0.04578999205242744 -0.035170857246292334 0.041886376300378836 -0.031870746163889414 0.04136402411538804 -19.722068068635814 0.03448695073368849 -0.006424410311473312 -0.024763934981796593 0.013892880912103228 0.0390335466392126 -0.009113596382163847 -0.011347013377746129 0.03315109073709472 24.04691184260387 -0.009039938946979728 0.02944679802482731 28.843227657978524 0.028842123477315657 0.008130982801533806 28.902788030697092 -0.022831568463171012 -0.0053087678834139685 6.174300857858894 1.3684256892555682 13.843705680472999 -72.52289001002698 25.474849787781654 -4.129718681577283 -0.7214199449570748 -11.216097285991044 -42.410418209912216 -9.453207457304638 -0.2628402298251583 3.1056606111232155 -0.4891589005112063 0.057619017968958096 -8.15154755664579 0.03346731814503755 -0.005212160807688916 44.525923577581125 0.012399247865046035 -0.032946061671456923 44.54747640956893 12.451010386395096 -0.03312143661675688 0.04232755261613138 0.037836859633724275 0.0033503792550909 -0.03156590337368375 -0.02633427672458413 0.01401395769361865 -0.0012925123646681921 11.126964970344211 0.046957351153395964 0.008067041003845891 -0.03176129447985713 -0.027415196233535673 -0.02461459456730274 0.006831494859694347 -0.023557948311976877 -0.009288775993118932 4.8211780467476455 0.01929366488680323 -0.034400350778291205 0.01669568141858556 -0.03727144408609645 -0.042061949860092415 -0.024760964127757284 -0.01973542048195457 0.017988550110388076 -5.601553775862893 -0.03689368602463784 -0.028295943012354552 -6.7311541201520155 0.018369084920773698 0.006735768887301575 -6.745883749392108 -0.038592145278487394 0.004685990439795127 -0.016281464498683115 -0.01994482765156696 0.025013460343797596 8.084459223892383 3.5250442816353256 -19.25329121485267 -0.03173657719953894 10.412962010328759 0.007757600616254336 -5.585803035653236 -15.652171922114468 3.2106516561313994 -0.019887852635938237 -0.02321136104677763 0.027381774384911746 -0.007658684989678029 4.734953881079688 0.00956987609045945 12.417984439714681 -8.24761664555141 6.883281783250795 0.02592258828365589 46.38170092963093 0.00869323523695221 -4.317442134401188 -14.760764393738167 -3.85711005727911 -0.0358974502308621 -0.02578768620310298 -0.03636166759611394 0.02707251318264881 -10.783715951153713 -0.04789729122799856 
0.009263044224855237 0.020556156496780664 0.007657289786636583 0.007278352754503716 0.01667021705377545 -0.027874933094522783 -3.1733083781592133 0.477680036116507 -0.7486081806914245 -1.1596248582245903 3.8130575101171305 0.3732185608434073 -1.3022806409915801 -2.109012014769118 -1.0783106488513987 -0.4584022573149293 0.5186414774451116 -0.7997087392338678 -0.6359714167209117 13.456231609857248 2.474490542353794 0.4262487188884156 0.16778425261055369 4.646686816550883 -0.13677198908756097 -14.829485041113132 0.3322656695852534 -5.1049117687495755 1.846891062976367 -15.206403179044605 72.66246554083901 20.054676673756447 -0.45758298632581934 2.4721063884593204 1.941147998205737 42.8377570117994 22.90997036164217 -0.14236707923557337 -4.220537901701664 4.48704515083999 -0.08021149655429358 -1.5819303910219145 -0.015559292228762366 0.005234975901283674 -56.201012519956166 -0.04246692271270159 -0.033381520600100405 -56.24518796349098 -38.75964012021579 -0.0014454748451603586 -0.01267337826057949 0.02006761163539982 0.002103999605193144 -0.01920586111052451 -0.0024043444062077715 0.018926183288156897 0.0350558208349314 -36.740642901570965 0.02580372399477996 -0.0203070060776922 0.042757036871449744 -0.020761538421918788 -0.03920308628854154 0.009773844251991707 -0.0022633832435147807 0.014053343694126636 -19.793203031094812 0.03085469665807701 0.04501281814239775 0.010393367993607506 -0.035843066347056605 -0.021038450682714174 0.005536196547560078 -0.0029266524807800205 -0.0020342524340551224 24.06871898659466 -0.02203391767296189 -0.03075422725646699 28.83697426853967 0.03313787487481558 -0.013919458492001668 28.873816969354216 -0.010628607474047485 0.017373438300544636 6.6586012594896165 1.464416407184039 13.81898913843939 -72.09512317740585 24.233220861776704 -5.7043653676427475 -0.4291956608584313 -11.72404422100433 -43.352209693449154 -8.44058714281459 0.009524225743891314 2.858069308030769 -0.4673644885913375 0.07192320042098538 -8.127628344206473 0.031937850731297526 0.049375455401594236 44.56282236180317 -0.014701522736319314 0.016923024182749515 44.53407682719105 12.494954554892194 0.021413440912480174 0.02332352582784334 0.006174326373426333 -0.028676325969405385 -0.017800344794398175 -0.02074244538865155 -0.04175188711038929 -0.031773541412596674 11.135222297023024 -0.041480608484039214 -0.015871197899166908 -0.012324811840097847 0.006979447948584606 0.006856762681629453 0.015356379899143832 -0.010962041018692931 -0.03320958086217528 4.772222445126734 -0.006393498873371947 0.019371845735610873 -0.04415327838612176 -0.03676189263687295 0.01750843964783979 0.04195601655701153 0.00011918527702045611 0.02748454065557286 -5.6309009322814765 -0.048174493701137924 -0.00610934156926098 -6.7148243535035075 -0.006914118701355595 -0.015243916754309557 -6.708442482882808 0.014800000584865303 -0.015304572136184788 -0.041990125468613124 -0.0007669885822155298 -0.009878058456923982 8.027687302944361 3.534631729668845 -19.24573546913631 -0.02522530820331791 10.352324215387936 0.009304902510941092 -5.653427334339008 -15.674285706390217 3.151211633658106 -0.0017510479171691069 0.0032564502946278223 0.03501062483453101 -0.0408402247029477 4.725399292008293 0.017771592799001912 12.4650714092544 -8.240627985694928 6.893451727430574 0.0353975785566213 46.42467699356232 -0.04024635068117836 -4.278649928519384 -14.778983977966284 -3.819961389188525 0.015425142142751962 0.03297628650997415 -0.0012776789388662109 -0.02937416589304817 -10.786052672126791 -0.01570084192937275 
-0.025176895195829992 0.043787944043107103 0.035383851866494655 0.041914990267935624 0.0028806814916567986 0.030869696205193992 -3.1310663843945936 0.5352139882473375 -0.6964561257524162 -1.1482709266875764 3.853244313930155 0.38355352603773324 -1.3209067873754587 -2.1255017815153083 -1.291702072625968 -0.5040359851639408 0.529419932585072 -0.855178209595141 -0.7946070047372221 13.695766016282423 2.9527121403264514 0.3563627532887223 0.13569417032163997 5.785322167999351 -0.34213420463594907 -14.83727847645252 0.44294988023257786 -5.304722010372246 1.8417277599127833 -15.12864789864174 71.75972391057985 19.987373373644992 -0.4362674182148777 2.1894646007209735 1.2966807147090316 43.33799083433404 22.65843476526463 -0.19238347344812703 -4.302337636672979 4.563994196541023 -0.1524540692025274 -1.5799735252536977 0.021246955460375333 0.040989253122777625 -56.27887960940353 0.006467674066357466 0.014412608335984858 -56.266785036906235 -38.79727456852052 -0.0020998085976433444 0.0060065134863507945 -0.04878665630193803 -0.023448239579482305 0.022835524224919537 0.017039730856826057 0.0024648396634257648 0.007045136343499684 -36.64911626674787 0.032598737166472595 0.011786330427784776 0.02490893832673879 -0.005503428761111439 0.030275078629266403 -0.004991047372837661 0.0025999444177854337 -0.03849387716773716 -19.710331155735563 -0.011339847365888613 0.03939231291745522 -0.004410982854566088 0.049386363963785124 -0.04062164004180929 -0.005141131688339877 -0.010225242980779268 0.010565095088666548 24.02930068974171 -0.0210811074041158 -0.009242817288449185 28.873741423729204 -0.0031305150430186255 -0.04204841437399401 28.818749844327908 -0.010022027368706965 -0.010141815532888824 7.315380309742767 1.5541562669215352 13.773297287516439 -71.55632081503936 22.88455784178943 -7.6214823016345035 0.2815126140368752 -12.563135258498786 -44.33719026229471 -7.325539354934707 0.4827994473134072 2.669952582766415 -0.4583348601966865 0.1153773491649612 -8.08960087450728 -0.04340829567255524 0.003548708124552992 44.57925973763023 -0.04125087596964182 0.03538019891272631 44.600102410619506 12.508802671475973 0.03811129456211677 0.023409420847986008 -0.04374143192033525 0.0418182547665889 0.0324959280406901 0.002898069645284151 0.009677062200828023 -0.005010586271525453 11.089251908594214 -0.02022719280820778 -0.0026733583978339037 0.00867992380251925 0.03489496668131654 0.029709102242715973 -0.027349789581111596 0.004205401774773306 -0.011861846844621896 4.7601994502068115 0.03492693488818485 0.009337323778303453 0.024341953568363064 -0.004862370875209567 -0.0013932570833881366 -0.029684812593718565 0.037287493759216736 -0.04961173918802196 -5.556642020378138 0.024911031297090394 -0.008388495385486047 -6.744527032824864 0.032130442197146385 0.02418316594286919 -6.749497663400074 -0.034681507999187663 0.022262396206666868 -0.0010651152666922238 -0.012483213543988738 0.01989497841244086 8.039414176883032 3.467018412178139 -19.20193843591159 -0.030149280418796564 10.399203507341323 -0.005490510144331259 -5.576339222215639 -15.702064587050192 3.2209998730050518 0.020607841742001597 0.04758101219446814 0.04411089013060686 0.012851080402023964 4.71499561837189 -0.0032979565962164893 12.434248259452728 -8.197911755342044 6.913022322973187 -0.037436715916876695 46.347396449626395 -0.014453856826021749 -4.3344204337183205 -14.78400779087945 -3.822898675269172 0.022384480083345985 0.013893426310370112 0.021548825918781864 0.02480095372769128 -10.792878167886242 -0.03149703610381487 
0.04565910246522355 0.010837461780289612 0.04608742404064719 -0.03903429461614668 0.008191262358290525 -0.00997518083949725 -3.077386440393889 0.5655099926568499 -0.658819896408297 -1.1611482464312899 3.8874099432220346 0.3780462518312371 -1.2581040121687763 -2.1495430540993508 -1.418704925093968 -0.5215578657229617 0.6193116397559592 -0.8696531467741334 -0.9927758686327752 13.9644112792697 3.4209249180326227 0.34658491139443676 0.29477445170912236 7.04047232941744 -0.6255644840343126 -14.567131113887994 0.5344517065803015 -5.619407030582819 1.9150549837208044 -14.965790020548045 70.64641076808084 20.130866770704987 0.015718302300774326 2.338671019724245 0.8573756779230386 44.40944000372348 22.45445313729914 -0.23162239241007881 -4.401498005477028 4.491643356311894 -0.09773108548755295 -1.6364514391404053 -0.01685229220710233 -0.04427067822642902 -56.217538737268505 0.036375031345860974 -0.022542702405374825 -56.23333085419421 -38.762156701064846 0.03571899481885817 -0.00011140977496463027 0.015273090171012249 -0.005560095405578882 0.026945983139221533 -0.0484729459431031 -0.029038546436531306 0.042706130238518714 -36.70640864384999 -0.015720385931807357 -0.025534285069521868 0.030734301395779484 0.046460909178345326 -0.0038508801269821983 0.023725776926182166 -0.012876403074971284 -0.04590262235522694 -19.743777313750364 0.015596754673713187 -0.011634648594336012 0.024340839807537172 0.016081496004213075 -0.0444923977365085 0.0027387417607789197 -0.0011853003856136341 -0.012481829264689158 24.08011656396074 0.01619042991726003 -0.024989925296847713 28.84965756245462 0.03298246188727584 -0.03880844377188705 28.842081128066305 -0.017627209127067524 -0.034909813610734274 8.189263508812893 1.7162707861995157 13.706720389056189 -70.88810196846373 20.905905371773375 -10.261354295379318 0.6261418688761322 -13.242242455695068 -46.1709043775237 -6.162631699318365 0.8715134263686724 2.3419453023864762 -0.47632822522024076 0.05766356457535628 -8.169958661039214 -0.0209912088437758 0.00657108539970531 44.61243906704014 0.021625608714410473 -0.006347766460606998 44.588102740939284 12.5089979604736 0.008516764302265063 0.009929095229906214 -0.014962847926023572 0.01549763233687464 0.004323318762636203 0.0068246777612558755 -0.02095799181707889 -0.0038184525065754617 11.1228184776924 -0.008293809447755658 0.004663897980147548 -0.015501636626964672 -0.02025253126742433 -0.00936857599061919 -0.00512805305546072 -0.021572538577959658 -0.0008753172150129742 4.806941094129079 0.03621628854448291 0.013033890675733356 0.04068943244759513 0.00927368907507967 0.04043852315319833 0.04539338554675582 -0.04952179998450091 -0.0161982665696569 -5.592225908251628 -0.018619422023760563 0.02841526606857353 -6.676899702977743 -0.0244988153674242 -0.01805429162505677 -6.745799761375303 0.02050266224238391 0.03313006932456521 -0.034127427273545695 -0.039972472209532886 -0.006079705292804267 8.024003403640672 3.534776403538282 -19.261552052072194 0.04733061542991422 10.418144658619951 -0.012288378300599836 -5.616618630183159 -15.697237989808643 3.2039326877421987 0.016671997135482515 -0.018621764146836264 -0.040695999872254064 0.002963356453460944 4.681765990082047 -0.022344574886459502 12.440008531346063 -8.230172608277897 6.856473138252914 0.030728879937126214 46.367227215523165 -0.03685000538407216 -4.315944951289085 -14.750531620852911 -3.831629518905263 -0.03588593747775509 0.006169622367359855 0.009588762950987388 -0.02455272371037847 -10.735315246347499 0.04160430067580143 
